<svg width="203" height="22" viewBox="0 0 203 22" fill="none" xmlns="http://www.w3.org/2000/svg">
<path d="M3.91006e-05 21.28V20.768L2.01604 19.712L10.24 -1.90735e-06H12L20.128 19.616L22.272 20.768V21.28H13.824V20.768L16.64 19.648L14.272 13.888H6.56004L4.22404 19.68L6.91204 20.768V21.28H3.91006e-05ZM7.29604 12.128H13.568L10.432 4.416L7.29604 12.128ZM27.1283 21.28V20.768L29.6243 19.712V12.8L23.8003 4.896L21.6883 3.872V3.36H29.3683V3.872L27.4163 4.832V4.96L32.0563 11.136L36.2803 4.992V4.896L34.2323 3.872V3.36H40.5363V3.872L38.4243 4.864L32.7923 12.864V19.712L35.2883 20.768V21.28H27.1283ZM39.9688 21.28V20.768L41.6008 19.904L48.7048 3.2H50.3688L57.4088 19.84L59.2968 20.768V21.28H51.8728V20.768L54.1128 19.84L52.1288 15.104H45.5368L43.5848 19.872L45.9208 20.768V21.28H39.9688ZM46.2088 13.504H51.4568L48.8008 7.136L46.2088 13.504ZM62.1788 21.28V20.768L64.5148 19.712V4.928L62.1788 3.872V3.36H69.9868V3.872L67.6828 4.928V19.712L69.9868 20.768V21.28H62.1788ZM76.2588 21.28L67.6828 12.16L75.1068 4.768L73.0908 3.872V3.36H79.5228V3.872L77.6988 4.576L70.8188 11.168L79.0748 19.904L81.3148 20.768V21.28H76.2588ZM81.6875 21.28V20.768L83.3195 19.904L90.4235 3.2H92.0875L99.1275 19.84L101.016 20.768V21.28H93.5915V20.768L95.8315 19.84L93.8475 15.104H87.2555L85.3035 19.872L87.6395 20.768V21.28H81.6875ZM87.9275 13.504H93.1755L90.5195 7.136L87.9275 13.504ZM112.026 21.28V20.768L114.65 19.488V1.952L112.026 0.671997V0.159998H120.57V0.671997L117.978 1.952V19.488L120.57 20.768V21.28H112.026ZM130.347 21.408L125.195 4.832L123.051 3.872V3.36H130.923V3.872L128.523 4.768L131.915 16.16H132.139L137.227 3.264H138.667L143.531 16.16H143.691L146.923 4.832L144.523 3.872V3.36H150.827V3.872L148.907 4.832L143.819 21.408H142.251L137.195 8.384H137.067L131.915 21.408H130.347ZM150.938 21.28V20.768L152.57 19.904L159.674 3.2H161.338L168.378 19.84L170.266 20.768V21.28H162.842V20.768L165.082 19.84L163.098 15.104H156.506L154.554 19.872L156.89 20.768V21.28H150.938ZM157.178 13.504H162.426L159.77 7.136L157.178 13.504ZM173.148 21.28V20.768L175.484 19.712V4.928L173.148 3.872V3.36H180.956V3.872L178.652 4.928V19.712L180.956 20.768V21.28H173.148ZM187.228 21.28L178.652 12.16L186.076 4.768L184.06 3.872V3.36H190.492V3.872L188.668 4.576L181.788 11.168L190.044 19.904L192.284 20.768V21.28H187.228ZM195.307 21.28V20.768L197.419 19.712V4.928L195.307 3.872V3.36H202.827V3.872L200.619 4.928V19.712L202.827 20.768V21.28H195.307Z" fill="white"/>
</svg>
